<svg xmlns="http://www.w3.org/2000/svg" viewBox="0 0 120 120" role="img" aria-labelledby="headerImageTitle" preserveAspectRatio="xMidYMid meet">
  <title id="headerImageTitle">Rate My President mascot</title>
  <defs>
    <linearGradient id="hairGrad" x1="0" y1="0" x2="1" y2="1">
      <stop offset="0%" stop-color="#3f5fd6" />
      <stop offset="100%" stop-color="#7659ff" />
    </linearGradient>
    <linearGradient id="suitGrad" x1="0" y1="0" x2="0" y2="1">
      <stop offset="0%" stop-color="#1c2133" />
      <stop offset="100%" stop-color="#2a3150" />
    </linearGradient>
  </defs>
  <rect width="120" height="120" rx="24" fill="#d9defc" />
  <circle cx="60" cy="44" r="30" fill="#f9d6b3" />
  <path d="M34 38c6-14 18-18 26-18s20 4 26 18" fill="url(#hairGrad)" />
  <path d="M60 29c-12 0-20 6-22 14 2-2 10-8 22-8s20 6 22 8c-2-8-10-14-22-14z" fill="#2a3150" opacity="0.2" />
  <circle cx="48" cy="45" r="4" fill="#2a3150" />
  <circle cx="72" cy="45" r="4" fill="#2a3150" />
  <path d="M50 58c6 6 16 6 22 0" stroke="#2a3150" stroke-width="4" stroke-linecap="round" fill="none" />
  <path d="M32 76c4-8 12-12 24-14 6-1 12-1 18 0 12 2 20 6 24 14v20H32V76z" fill="url(#suitGrad)" />
  <path d="M60 82l-12 12h24l-12-12z" fill="#ffffff" opacity="0.8" />
  <path d="M44 76l-8 10h16l-8-10z" fill="#1c2133" />
  <path d="M76 76l8 10h-16l8-10z" fill="#1c2133" />
</svg>
